# xmcd
#
# Track frame offsets:
#	150
#	12778
#	25146
#	37580
#	50428
#	64132
#	75418
#	89021
#	99829
#	112990
#	127556
#	139226
#	150845
#	165011
#	174848
#	188922
#	200577
#	215223
#	226344
#	237214
#	249108
#	260957
#	275303
#	287550
#	296395
#
# Disc length: 4140 seconds
# Revision: 2
# Processed by: cddbd v1.5.2PL0 Copyright (c) Steve Scherf et al.
# Submitted via: dBpowerAMP V12.0
#
DISCID=3b102a19
DTITLE=Various Artist - Definitive Chicago Blues - CD1
DYEAR=2012
DGENRE=Blues
TTITLE0=Muddy Waters - I'm Your Hoochie Coochie
TTITLE1=Howlin' Wolf - Spoonful
TTITLE2=Elmore James - Dust My Broom
TTITLE3=Junior Wells - Cut That Out
TTITLE4=Buddy Guy - Sit and Cry (The Blues)
TTITLE5=Freddie King - Country Boy
TTITLE6=Bo Diddley - I'm A Man
TTITLE7=Roosevelt Sykes - Sweet Old Chicago
TTITLE8=Magic Sam - All Your Love
TTITLE9=Floyd Jones - On The Road Again
TTITLE10=Jimmy McCracklin - Later On
TTITLE11=Sonny Boy Williamson - Don't Start Me Talkin'
TTITLE12=Walter 'Shakey' Horton - West Winds Are Blowing-Horton
TTITLE13=Willie Dixon - 29 Ways
TTITLE14=Otis Rush - I Can't Quit You Baby
TTITLE15=Jimmy Rogers - You're The One
TTITLE16=Eddie Boyd - Third Degree
TTITLE17=Robert Lockwood Jr. - Glory For Man
TTITLE18=Jimmy Reed - Baby What You Want Me To Do
TTITLE19=Sunnyland Slim - Shake It Baby
TTITLE20=Willie Mabon - I'm Mad
TTITLE21=Champion Jack Dupree - Junker's Blues
TTITLE22=Memphis Slim - Walking Alone
TTITLE23=Sonny Boy Williamson - Checkin' Up On My Baby-Williamson
TTITLE24=Howlin' Wolf - Smokestack Lightnin'
EXTD=
EXTT0=
EXTT1=
EXTT2=
EXTT3=
EXTT4=
EXTT5=
EXTT6=
EXTT7=
EXTT8=
EXTT9=
EXTT10=
EXTT11=
EXTT12=
EXTT13=
EXTT14=
EXTT15=
EXTT16=
EXTT17=
EXTT18=
EXTT19=
EXTT20=
EXTT21=
EXTT22=
EXTT23=
EXTT24=
PLAYORDER=
